<svg xmlns="http://www.w3.org/2000/svg" xmlns:xlink="http://www.w3.org/1999/xlink" width="55" zoomAndPan="magnify" viewBox="0 0 41.25 41.250001" height="55" preserveAspectRatio="xMidYMid meet" version="1.2"><defs><clipPath id="6fe17d9654"><path d="M 2 2 L 39 2 L 39 39 L 2 39 Z M 2 2 "/></clipPath><clipPath id="be1d53b25d"><path d="M 0 4.464844 L 35.832031 -0.0078125 L 40.300781 35.824219 L 4.46875 40.296875 Z M 0 4.464844 "/></clipPath><clipPath id="e13699bd76"><path d="M 35.78125 0 L -0.0507812 4.46875 L 4.417969 40.300781 L 40.25 35.832031 Z M 35.78125 0 "/></clipPath><clipPath id="add91c0b26"><path d="M 9.734375 10.097656 L 30.460938 10.097656 L 30.460938 30 L 9.734375 30 Z M 9.734375 10.097656 "/></clipPath></defs><g id="df805f3619"><g clip-rule="nonzero" clip-path="url(#6fe17d9654)"><g clip-rule="nonzero" clip-path="url(#be1d53b25d)"><g clip-rule="nonzero" clip-path="url(#e13699bd76)"><path style=" stroke:none;fill-rule:nonzero;fill:#711eeb;fill-opacity:1;" d="M 17.890625 2.230469 C 27.757812 1 36.78125 8.027344 38.015625 17.890625 C 38.546875 22.15625 37.535156 26.464844 35.167969 30.046875 L 35.863281 35.601562 C 35.910156 35.996094 35.632812 36.359375 35.234375 36.40625 L 22.355469 38.015625 C 12.488281 39.246094 3.460938 32.21875 2.230469 22.355469 C 1 12.488281 8.027344 3.460938 17.890625 2.230469 Z M 17.890625 2.230469 "/></g></g></g><g clip-rule="nonzero" clip-path="url(#add91c0b26)"><path style=" stroke:none;fill-rule:nonzero;fill:#ffffff;fill-opacity:1;" d="M 28.636719 16.375 C 27.050781 15.953125 24.378906 15.910156 24.378906 15.910156 C 23.980469 15.835938 23.75 15.945312 23.441406 15.226562 C 23.132812 14.507812 22.589844 12.964844 21.300781 11.238281 C 20.660156 10.5 19.589844 10.097656 18.621094 11.238281 C 17.824219 12.1875 16.488281 15.226562 16.488281 15.226562 C 16.296875 15.585938 16.445312 15.769531 15.546875 15.910156 C 14.652344 16.046875 12.746094 16.214844 11.09375 16.710938 C 9.855469 17.015625 9.746094 18.328125 10.269531 19.253906 C 10.792969 20.183594 13.402344 22.523438 13.402344 22.523438 C 13.683594 22.820312 13.8125 23.222656 13.757812 23.625 C 13.757812 23.625 12.925781 27.085938 13.148438 28.109375 C 13.367188 29.136719 14.039062 29.835938 15.3125 29.679688 C 16.582031 29.527344 19.382812 27.714844 19.382812 27.714844 C 19.75 27.539062 20.179688 27.539062 20.546875 27.714844 C 20.546875 27.714844 23.214844 29.269531 24.621094 29.683594 C 26.023438 30.101562 26.734375 28.867188 26.785156 28.113281 C 26.730469 26.503906 26.171875 23.628906 26.171875 23.628906 C 26.117188 23.226562 26.019531 22.898438 26.53125 22.527344 C 27.042969 22.152344 28.664062 20.707031 29.660156 19.257812 C 30.449219 18.113281 30.226562 16.796875 28.636719 16.375 Z M 28.636719 16.375 "/></g></g></svg>