<svg xmlns="http://www.w3.org/2000/svg" xmlns:xlink="http://www.w3.org/1999/xlink" width="241" zoomAndPan="magnify" viewBox="0 0 180.75 50.249999" height="67" preserveAspectRatio="xMidYMid meet" version="1.2"><defs><clipPath id="e13f055570"><path d="M 3 4 L 43 4 L 43 45 L 3 45 Z M 3 4 "/></clipPath><clipPath id="3f15e8848b"><path d="M 1.207031 7.546875 L 40.125 2.691406 L 44.980469 41.609375 L 6.0625 46.464844 Z M 1.207031 7.546875 "/></clipPath><clipPath id="bf5ca080be"><path d="M 40.070312 2.699219 L 1.152344 7.554688 L 6.007812 46.472656 L 44.925781 41.617188 Z M 40.070312 2.699219 "/></clipPath><clipPath id="36e8b26c1b"><path d="M 12 14 L 34 14 L 34 35.476562 L 12 35.476562 Z M 12 14 "/></clipPath></defs><g id="8a1673b7f7"><g style="fill:#000000;fill-opacity:1;"><g transform="translate(44.919832, 34.228533)"><path style="stroke:none" d="M 8.609375 0.28125 C 7.109375 0.28125 5.660156 0.0664062 4.265625 -0.359375 C 2.878906 -0.785156 1.78125 -1.347656 0.96875 -2.046875 L 2.21875 -4.84375 C 3.007812 -4.21875 3.976562 -3.707031 5.125 -3.3125 C 6.28125 -2.914062 7.441406 -2.71875 8.609375 -2.71875 C 10.046875 -2.71875 11.117188 -2.945312 11.828125 -3.40625 C 12.535156 -3.863281 12.890625 -4.472656 12.890625 -5.234375 C 12.890625 -5.785156 12.691406 -6.238281 12.296875 -6.59375 C 11.898438 -6.957031 11.394531 -7.238281 10.78125 -7.4375 C 10.175781 -7.644531 9.347656 -7.878906 8.296875 -8.140625 C 6.828125 -8.484375 5.632812 -8.832031 4.71875 -9.1875 C 3.800781 -9.539062 3.015625 -10.085938 2.359375 -10.828125 C 1.710938 -11.578125 1.390625 -12.585938 1.390625 -13.859375 C 1.390625 -14.929688 1.675781 -15.90625 2.25 -16.78125 C 2.832031 -17.65625 3.707031 -18.347656 4.875 -18.859375 C 6.050781 -19.378906 7.488281 -19.640625 9.1875 -19.640625 C 10.363281 -19.640625 11.523438 -19.492188 12.671875 -19.203125 C 13.816406 -18.910156 14.804688 -18.488281 15.640625 -17.9375 L 14.5 -15.140625 C 13.65625 -15.640625 12.769531 -16.015625 11.84375 -16.265625 C 10.914062 -16.523438 10.019531 -16.65625 9.15625 -16.65625 C 7.738281 -16.65625 6.679688 -16.414062 5.984375 -15.9375 C 5.296875 -15.457031 4.953125 -14.820312 4.953125 -14.03125 C 4.953125 -13.476562 5.148438 -13.023438 5.546875 -12.671875 C 5.941406 -12.316406 6.441406 -12.039062 7.046875 -11.84375 C 7.660156 -11.644531 8.492188 -11.414062 9.546875 -11.15625 C 10.984375 -10.820312 12.160156 -10.472656 13.078125 -10.109375 C 14.003906 -9.753906 14.796875 -9.207031 15.453125 -8.46875 C 16.109375 -7.726562 16.4375 -6.734375 16.4375 -5.484375 C 16.4375 -4.410156 16.144531 -3.4375 15.5625 -2.5625 C 14.976562 -1.695312 14.097656 -1.003906 12.921875 -0.484375 C 11.742188 0.0234375 10.304688 0.28125 8.609375 0.28125 Z M 8.609375 0.28125 "/></g></g><g style="fill:#000000;fill-opacity:1;"><g transform="translate(61.522207, 34.228533)"><path style="stroke:none" d="M 11.15625 -0.796875 C 10.75 -0.460938 10.253906 -0.210938 9.671875 -0.046875 C 9.085938 0.109375 8.472656 0.1875 7.828125 0.1875 C 6.203125 0.1875 4.945312 -0.234375 4.0625 -1.078125 C 3.175781 -1.929688 2.734375 -3.164062 2.734375 -4.78125 L 2.734375 -11.90625 L 0.296875 -11.90625 L 0.296875 -14.671875 L 2.734375 -14.671875 L 2.734375 -18.046875 L 6.203125 -18.046875 L 6.203125 -14.671875 L 10.15625 -14.671875 L 10.15625 -11.90625 L 6.203125 -11.90625 L 6.203125 -4.875 C 6.203125 -4.15625 6.375 -3.601562 6.71875 -3.21875 C 7.070312 -2.84375 7.582031 -2.65625 8.25 -2.65625 C 9.019531 -2.65625 9.664062 -2.859375 10.1875 -3.265625 Z M 11.15625 -0.796875 "/></g></g><g style="fill:#000000;fill-opacity:1;"><g transform="translate(72.452094, 34.228533)"><path style="stroke:none" d="M 7.921875 -14.9375 C 10.085938 -14.9375 11.75 -14.414062 12.90625 -13.375 C 14.0625 -12.332031 14.640625 -10.757812 14.640625 -8.65625 L 14.640625 0 L 11.375 0 L 11.375 -1.796875 C 10.945312 -1.148438 10.34375 -0.65625 9.5625 -0.3125 C 8.78125 0.0195312 7.832031 0.1875 6.71875 0.1875 C 5.613281 0.1875 4.644531 0 3.8125 -0.375 C 2.988281 -0.75 2.347656 -1.269531 1.890625 -1.9375 C 1.441406 -2.613281 1.21875 -3.378906 1.21875 -4.234375 C 1.21875 -5.554688 1.707031 -6.617188 2.6875 -7.421875 C 3.675781 -8.234375 5.234375 -8.640625 7.359375 -8.640625 L 11.171875 -8.640625 L 11.171875 -8.859375 C 11.171875 -9.890625 10.863281 -10.679688 10.25 -11.234375 C 9.632812 -11.785156 8.71875 -12.0625 7.5 -12.0625 C 6.664062 -12.0625 5.847656 -11.929688 5.046875 -11.671875 C 4.242188 -11.421875 3.566406 -11.0625 3.015625 -10.59375 L 1.65625 -13.109375 C 2.4375 -13.703125 3.367188 -14.15625 4.453125 -14.46875 C 5.546875 -14.78125 6.703125 -14.9375 7.921875 -14.9375 Z M 7.4375 -2.328125 C 8.3125 -2.328125 9.082031 -2.523438 9.75 -2.921875 C 10.425781 -3.316406 10.898438 -3.882812 11.171875 -4.625 L 11.171875 -6.34375 L 7.609375 -6.34375 C 5.617188 -6.34375 4.625 -5.6875 4.625 -4.375 C 4.625 -3.75 4.867188 -3.25 5.359375 -2.875 C 5.859375 -2.507812 6.550781 -2.328125 7.4375 -2.328125 Z M 7.4375 -2.328125 "/></g></g><g style="fill:#000000;fill-opacity:1;"><g transform="translate(88.445712, 34.228533)"><path style="stroke:none" d="M 5.5625 -12.625 C 6.5625 -14.164062 8.3125 -14.9375 10.8125 -14.9375 L 10.8125 -11.65625 C 10.519531 -11.707031 10.253906 -11.734375 10.015625 -11.734375 C 8.671875 -11.734375 7.617188 -11.335938 6.859375 -10.546875 C 6.109375 -9.765625 5.734375 -8.640625 5.734375 -7.171875 L 5.734375 0 L 2.265625 0 L 2.265625 -14.78125 L 5.5625 -14.78125 Z M 5.5625 -12.625 "/></g></g><g style="fill:#000000;fill-opacity:1;"><g transform="translate(98.656156, 34.228533)"><path style="stroke:none" d="M 11.5625 0.28125 C 9.613281 0.28125 7.847656 -0.144531 6.265625 -1 C 4.691406 -1.863281 3.457031 -3.050781 2.5625 -4.5625 C 1.664062 -6.070312 1.21875 -7.78125 1.21875 -9.6875 C 1.21875 -11.582031 1.664062 -13.285156 2.5625 -14.796875 C 3.46875 -16.316406 4.707031 -17.503906 6.28125 -18.359375 C 7.863281 -19.210938 9.632812 -19.640625 11.59375 -19.640625 C 13.175781 -19.640625 14.625 -19.363281 15.9375 -18.8125 C 17.25 -18.257812 18.359375 -17.457031 19.265625 -16.40625 L 16.9375 -14.21875 C 15.53125 -15.738281 13.804688 -16.5 11.765625 -16.5 C 10.429688 -16.5 9.238281 -16.207031 8.1875 -15.625 C 7.132812 -15.039062 6.3125 -14.234375 5.71875 -13.203125 C 5.132812 -12.171875 4.84375 -11 4.84375 -9.6875 C 4.84375 -8.375 5.132812 -7.203125 5.71875 -6.171875 C 6.3125 -5.140625 7.132812 -4.332031 8.1875 -3.75 C 9.238281 -3.164062 10.429688 -2.875 11.765625 -2.875 C 13.804688 -2.875 15.53125 -3.640625 16.9375 -5.171875 L 19.265625 -2.953125 C 18.359375 -1.910156 17.242188 -1.109375 15.921875 -0.546875 C 14.609375 0.00390625 13.15625 0.28125 11.5625 0.28125 Z M 11.5625 0.28125 "/></g></g><g style="fill:#000000;fill-opacity:1;"><g transform="translate(117.970252, 34.228533)"><path style="stroke:none" d="M 10.65625 -14.9375 C 12.519531 -14.9375 14.015625 -14.390625 15.140625 -13.296875 C 16.265625 -12.210938 16.828125 -10.601562 16.828125 -8.46875 L 16.828125 0 L 13.359375 0 L 13.359375 -8.03125 C 13.359375 -9.320312 13.054688 -10.289062 12.453125 -10.9375 C 11.847656 -11.59375 10.976562 -11.921875 9.84375 -11.921875 C 8.570312 -11.921875 7.566406 -11.535156 6.828125 -10.765625 C 6.097656 -10.003906 5.734375 -8.90625 5.734375 -7.46875 L 5.734375 0 L 2.265625 0 L 2.265625 -20.53125 L 5.734375 -20.53125 L 5.734375 -13.0625 C 6.296875 -13.664062 7 -14.128906 7.84375 -14.453125 C 8.6875 -14.773438 9.625 -14.9375 10.65625 -14.9375 Z M 10.65625 -14.9375 "/></g></g><g style="fill:#000000;fill-opacity:1;"><g transform="translate(136.122189, 34.228533)"><path style="stroke:none" d="M 7.921875 -14.9375 C 10.085938 -14.9375 11.75 -14.414062 12.90625 -13.375 C 14.0625 -12.332031 14.640625 -10.757812 14.640625 -8.65625 L 14.640625 0 L 11.375 0 L 11.375 -1.796875 C 10.945312 -1.148438 10.34375 -0.65625 9.5625 -0.3125 C 8.78125 0.0195312 7.832031 0.1875 6.71875 0.1875 C 5.613281 0.1875 4.644531 0 3.8125 -0.375 C 2.988281 -0.75 2.347656 -1.269531 1.890625 -1.9375 C 1.441406 -2.613281 1.21875 -3.378906 1.21875 -4.234375 C 1.21875 -5.554688 1.707031 -6.617188 2.6875 -7.421875 C 3.675781 -8.234375 5.234375 -8.640625 7.359375 -8.640625 L 11.171875 -8.640625 L 11.171875 -8.859375 C 11.171875 -9.890625 10.863281 -10.679688 10.25 -11.234375 C 9.632812 -11.785156 8.71875 -12.0625 7.5 -12.0625 C 6.664062 -12.0625 5.847656 -11.929688 5.046875 -11.671875 C 4.242188 -11.421875 3.566406 -11.0625 3.015625 -10.59375 L 1.65625 -13.109375 C 2.4375 -13.703125 3.367188 -14.15625 4.453125 -14.46875 C 5.546875 -14.78125 6.703125 -14.9375 7.921875 -14.9375 Z M 7.4375 -2.328125 C 8.3125 -2.328125 9.082031 -2.523438 9.75 -2.921875 C 10.425781 -3.316406 10.898438 -3.882812 11.171875 -4.625 L 11.171875 -6.34375 L 7.609375 -6.34375 C 5.617188 -6.34375 4.625 -5.6875 4.625 -4.375 C 4.625 -3.75 4.867188 -3.25 5.359375 -2.875 C 5.859375 -2.507812 6.550781 -2.328125 7.4375 -2.328125 Z M 7.4375 -2.328125 "/></g></g><g style="fill:#000000;fill-opacity:1;"><g transform="translate(152.115802, 34.228533)"><path style="stroke:none" d="M 11.15625 -0.796875 C 10.75 -0.460938 10.253906 -0.210938 9.671875 -0.046875 C 9.085938 0.109375 8.472656 0.1875 7.828125 0.1875 C 6.203125 0.1875 4.945312 -0.234375 4.0625 -1.078125 C 3.175781 -1.929688 2.734375 -3.164062 2.734375 -4.78125 L 2.734375 -11.90625 L 0.296875 -11.90625 L 0.296875 -14.671875 L 2.734375 -14.671875 L 2.734375 -18.046875 L 6.203125 -18.046875 L 6.203125 -14.671875 L 10.15625 -14.671875 L 10.15625 -11.90625 L 6.203125 -11.90625 L 6.203125 -4.875 C 6.203125 -4.15625 6.375 -3.601562 6.71875 -3.21875 C 7.070312 -2.84375 7.582031 -2.65625 8.25 -2.65625 C 9.019531 -2.65625 9.664062 -2.859375 10.1875 -3.265625 Z M 11.15625 -0.796875 "/></g></g><g clip-rule="nonzero" clip-path="url(#e13f055570)"><g clip-rule="nonzero" clip-path="url(#3f15e8848b)"><g clip-rule="nonzero" clip-path="url(#bf5ca080be)"><path style=" stroke:none;fill-rule:nonzero;fill:#711eeb;fill-opacity:1;" d="M 20.636719 5.121094 C 31.351562 3.785156 41.15625 11.414062 42.496094 22.128906 C 43.074219 26.765625 41.976562 31.441406 39.40625 35.335938 L 40.160156 41.367188 C 40.210938 41.796875 39.90625 42.1875 39.476562 42.242188 L 25.488281 43.988281 C 14.773438 45.324219 4.964844 37.695312 3.628906 26.980469 C 2.292969 16.265625 9.921875 6.457031 20.636719 5.121094 Z M 20.636719 5.121094 "/></g></g></g><g clip-rule="nonzero" clip-path="url(#36e8b26c1b)"><path style=" stroke:none;fill-rule:nonzero;fill:#ffffff;fill-opacity:1;" d="M 32.3125 20.484375 C 30.585938 20.023438 27.6875 19.976562 27.6875 19.976562 C 27.253906 19.898438 27 20.019531 26.664062 19.238281 C 26.332031 18.457031 25.742188 16.777344 24.339844 14.90625 C 23.648438 14.105469 22.484375 13.667969 21.433594 14.90625 C 20.566406 15.9375 19.117188 19.238281 19.117188 19.238281 C 18.90625 19.625 19.066406 19.828125 18.09375 19.976562 C 17.121094 20.125 15.050781 20.308594 13.257812 20.847656 C 11.910156 21.179688 11.792969 22.605469 12.359375 23.613281 C 12.925781 24.621094 15.761719 27.160156 15.761719 27.160156 C 16.066406 27.480469 16.210938 27.921875 16.148438 28.359375 C 16.148438 28.359375 15.246094 32.117188 15.484375 33.230469 C 15.726562 34.34375 16.457031 35.105469 17.835938 34.9375 C 19.21875 34.769531 22.261719 32.800781 22.261719 32.800781 C 22.660156 32.609375 23.121094 32.609375 23.519531 32.800781 C 23.519531 32.800781 26.421875 34.488281 27.949219 34.941406 C 29.472656 35.390625 30.242188 34.050781 30.296875 33.234375 C 30.238281 31.484375 29.632812 28.363281 29.632812 28.363281 C 29.574219 27.925781 29.46875 27.570312 30.023438 27.164062 C 30.578125 26.757812 32.339844 25.191406 33.421875 23.617188 C 34.277344 22.371094 34.035156 20.941406 32.3125 20.484375 Z M 32.3125 20.484375 "/></g></g></svg>