<svg xmlns="http://www.w3.org/2000/svg" xmlns:xlink="http://www.w3.org/1999/xlink" width="32" zoomAndPan="magnify" viewBox="0 0 24 24.749999" height="33" preserveAspectRatio="xMidYMid meet" version="1.2"><defs><clipPath id="8e69dbffc8"><path d="M 0.316406 0 L 23.136719 0 L 23.136719 24.503906 L 0.316406 24.503906 Z M 0.316406 0 "/></clipPath><clipPath id="cbea538721"><path d="M 10.882812 7.960938 L 15.171875 7.960938 L 15.171875 12.90625 L 10.882812 12.90625 Z M 10.882812 7.960938 "/></clipPath><clipPath id="aca70f54d7"><path d="M 11.859375 11.175781 C 12.472656 9.355469 12.816406 9.109375 13.164062 9.058594 C 13.554688 8.984375 14.222656 9.132812 14.542969 9.402344 C 14.835938 9.675781 15.132812 10.289062 15.035156 10.734375 C 14.933594 11.273438 14.097656 12.1875 13.53125 12.332031 C 13.039062 12.457031 12.324219 12.136719 11.882812 11.765625 C 11.414062 11.324219 10.824219 10.316406 10.898438 9.699219 C 10.996094 9.082031 11.832031 8.222656 12.449219 8.023438 C 13.015625 7.851562 13.902344 8.050781 14.367188 8.445312 C 14.8125 8.8125 15.28125 10.242188 15.132812 10.363281 C 15.035156 10.460938 14.613281 10.019531 14.441406 10.09375 C 14.195312 10.214844 14.320312 11.203125 14.046875 11.546875 C 13.828125 11.816406 13.382812 12.015625 13.039062 12.039062 C 12.695312 12.0625 12.226562 11.941406 11.957031 11.742188 C 11.660156 11.546875 11.316406 10.808594 11.316406 10.78125 C 11.316406 10.78125 12.03125 11.765625 12.003906 11.792969 C 12.003906 11.792969 11.488281 11.273438 11.363281 10.980469 C 11.265625 10.683594 11.242188 10.265625 11.363281 9.96875 C 11.511719 9.578125 12.054688 9.058594 12.421875 8.910156 C 12.742188 8.789062 13.164062 8.835938 13.457031 8.960938 C 13.753906 9.058594 14.074219 9.304688 14.246094 9.601562 C 14.441406 9.96875 14.515625 10.683594 14.34375 11.101562 C 14.171875 11.496094 13.605469 11.941406 13.164062 12.015625 C 12.742188 12.085938 12.054688 11.890625 11.734375 11.570312 C 11.4375 11.25 11.21875 10.5625 11.316406 10.117188 C 11.414062 9.699219 11.90625 9.15625 12.277344 8.960938 C 12.570312 8.8125 12.964844 8.765625 13.285156 8.886719 C 13.703125 9.058594 14.296875 9.722656 14.441406 10.09375 C 14.542969 10.363281 14.515625 10.609375 14.417969 10.855469 C 14.320312 11.175781 14.023438 11.59375 13.753906 11.792969 C 13.554688 11.941406 13.308594 12.039062 13.039062 12.039062 C 12.644531 12.039062 11.957031 11.742188 11.660156 11.472656 C 11.464844 11.300781 11.242188 10.90625 11.316406 10.78125 C 11.4375 10.636719 12.71875 11.347656 13.089844 11.128906 C 13.433594 10.90625 13.679688 9.796875 13.53125 9.648438 C 13.359375 9.503906 12.128906 10.4375 12.003906 10.339844 C 11.957031 10.289062 12.03125 10.117188 12.105469 9.996094 C 12.226562 9.773438 12.523438 9.328125 12.816406 9.183594 C 13.113281 9.035156 13.554688 8.960938 13.902344 9.058594 C 14.269531 9.183594 14.789062 9.578125 14.960938 9.996094 C 15.132812 10.488281 14.960938 11.449219 14.761719 11.914062 C 14.613281 12.261719 14.34375 12.554688 14.046875 12.703125 C 13.753906 12.875 13.308594 12.925781 12.988281 12.851562 C 12.671875 12.753906 12.300781 12.507812 12.105469 12.234375 C 11.90625 11.941406 11.859375 11.175781 11.859375 11.175781 "/></clipPath><clipPath id="9f921e80c2"><path d="M 7.28125 8.078125 L 17.914062 8.078125 L 17.914062 14.464844 L 7.28125 14.464844 Z M 7.28125 8.078125 "/></clipPath><clipPath id="f9818909f1"><path d="M 17.691406 10.460938 C 16.140625 12.039062 14.121094 12.1875 13.605469 11.765625 C 13.234375 11.496094 13.1875 10.78125 13.261719 10.265625 C 13.382812 9.648438 14 8.640625 14.542969 8.34375 C 14.984375 8.125 15.625 8.199219 16.09375 8.417969 C 16.660156 8.691406 17.324219 9.402344 17.546875 10.070312 C 17.765625 10.78125 17.617188 11.964844 17.347656 12.628906 C 17.125 13.171875 16.707031 13.589844 16.265625 13.886719 C 15.773438 14.207031 15.15625 14.402344 14.542969 14.453125 C 13.875 14.5 13.164062 14.378906 12.398438 14.082031 C 11.316406 13.6875 9.738281 12.679688 8.855469 11.988281 C 8.238281 11.546875 7.671875 11.152344 7.449219 10.660156 C 7.253906 10.214844 7.230469 9.601562 7.425781 9.230469 C 7.597656 8.835938 8.1875 8.46875 8.582031 8.394531 C 8.902344 8.320312 9.273438 8.417969 9.542969 8.566406 C 9.8125 8.738281 10.085938 8.984375 10.183594 9.304688 C 10.304688 9.675781 10.304688 10.390625 10.058594 10.734375 C 9.839844 11.078125 9.222656 11.398438 8.828125 11.421875 C 8.484375 11.472656 8.140625 11.324219 7.894531 11.152344 C 7.648438 10.953125 7.402344 10.660156 7.328125 10.339844 C 7.230469 9.96875 7.328125 9.28125 7.597656 8.9375 C 7.867188 8.617188 8.359375 8.34375 8.902344 8.371094 C 9.9375 8.46875 11.757812 10.660156 13.113281 11.027344 C 14.222656 11.324219 16.3125 11.152344 16.363281 10.90625 C 16.414062 10.734375 14.46875 10.363281 14.367188 9.921875 C 14.269531 9.527344 15.007812 8.738281 15.453125 8.445312 C 15.847656 8.199219 16.414062 8.023438 16.832031 8.125 C 17.226562 8.222656 17.71875 8.691406 17.863281 9.058594 C 18.011719 9.453125 17.691406 10.460938 17.691406 10.460938 "/></clipPath><clipPath id="fd523b6ab2"><path d="M 9.269531 7.867188 L 17.882812 7.867188 L 17.882812 13.886719 L 9.269531 13.886719 Z M 9.269531 7.867188 "/></clipPath><clipPath id="7b94d76b73"><path d="M 12.523438 8.125 C 16.90625 10.167969 17.667969 10.707031 17.816406 11.324219 C 17.964844 11.867188 17.765625 12.703125 17.347656 13.121094 C 16.855469 13.613281 15.601562 13.859375 14.8125 13.859375 C 14.121094 13.859375 13.457031 13.539062 12.867188 13.292969 C 12.324219 13.074219 11.785156 12.800781 11.339844 12.507812 C 10.921875 12.210938 10.527344 11.941406 10.183594 11.519531 C 9.8125 10.980469 9.320312 10.019531 9.296875 9.453125 C 9.246094 9.082031 9.371094 8.789062 9.542969 8.515625 C 9.714844 8.269531 9.984375 8.023438 10.304688 7.925781 C 10.675781 7.828125 11.363281 7.902344 11.710938 8.148438 C 12.03125 8.394531 12.324219 9.011719 12.300781 9.429688 C 12.277344 9.847656 11.929688 10.4375 11.585938 10.660156 C 11.242188 10.882812 10.550781 10.882812 10.183594 10.734375 C 9.863281 10.636719 9.617188 10.363281 9.46875 10.09375 C 9.320312 9.824219 9.222656 9.453125 9.296875 9.132812 C 9.394531 8.738281 9.765625 8.171875 10.160156 8 C 10.527344 7.828125 11.21875 7.878906 11.5625 8.050781 C 11.859375 8.199219 12.078125 8.542969 12.203125 8.789062 C 12.277344 8.984375 12.152344 9.183594 12.300781 9.402344 C 12.496094 9.75 13.261719 10.167969 13.800781 10.460938 C 14.394531 10.78125 15.527344 10.78125 15.746094 11.203125 C 15.945312 11.570312 15.722656 12.582031 15.425781 12.703125 C 15.058594 12.851562 14.269531 11.914062 13.605469 11.59375 C 12.890625 11.25 11.710938 11.078125 11.21875 10.757812 C 10.972656 10.585938 10.847656 10.460938 10.75 10.242188 C 10.601562 9.96875 10.527344 9.503906 10.578125 9.207031 C 10.625 8.960938 10.75 8.738281 10.898438 8.566406 C 11.046875 8.394531 11.242188 8.222656 11.464844 8.148438 C 11.757812 8.050781 12.523438 8.125 12.523438 8.125 "/></clipPath><clipPath id="6b462e05b0"><path d="M 3.089844 7.449219 L 17.5 7.449219 L 17.5 13.15625 L 3.089844 13.15625 Z M 3.089844 7.449219 "/></clipPath><clipPath id="93ccdd0139"><path d="M 3.09375 10.390625 C 4.988281 8.148438 5.949219 7.925781 6.269531 8.074219 C 6.441406 8.148438 6.488281 8.515625 6.539062 8.542969 C 6.539062 8.542969 6.539062 8.542969 6.5625 8.542969 C 6.589844 8.542969 6.589844 8.542969 6.613281 8.542969 C 6.710938 8.542969 7.128906 8.394531 7.5 8.394531 C 8.066406 8.417969 9.371094 8.566406 9.738281 8.886719 C 9.984375 9.082031 9.914062 9.578125 10.058594 9.648438 C 10.132812 9.699219 10.28125 9.648438 10.355469 9.601562 C 10.40625 9.578125 10.453125 9.503906 10.480469 9.453125 C 10.480469 9.355469 10.40625 9.28125 10.40625 9.183594 C 10.378906 9.082031 10.378906 8.9375 10.378906 8.8125 C 10.40625 8.714844 10.429688 8.589844 10.480469 8.46875 C 10.503906 8.371094 10.578125 8.246094 10.625 8.148438 C 10.699219 8.050781 10.773438 7.953125 10.871094 7.878906 C 10.945312 7.804688 11.046875 7.730469 11.167969 7.65625 C 11.265625 7.605469 11.390625 7.558594 11.488281 7.53125 C 11.609375 7.507812 11.683594 7.484375 11.859375 7.484375 C 12.300781 7.457031 13.554688 7.457031 14.246094 7.484375 C 14.8125 7.53125 15.304688 7.484375 15.773438 7.65625 C 16.289062 7.878906 16.929688 8.269531 17.199219 8.738281 C 17.445312 9.15625 17.546875 9.773438 17.421875 10.214844 C 17.324219 10.683594 16.90625 11.175781 16.511719 11.496094 C 16.117188 11.816406 15.601562 12.015625 15.035156 12.136719 C 14.394531 12.285156 13.457031 12.1875 12.867188 12.261719 C 12.472656 12.332031 12.277344 12.433594 11.90625 12.53125 C 11.390625 12.628906 10.550781 12.726562 9.984375 12.777344 C 9.519531 12.828125 9.027344 12.726562 8.753906 12.828125 C 8.582031 12.875 8.558594 13.023438 8.386719 13.074219 C 8.042969 13.171875 7.277344 13.171875 6.734375 13.097656 C 6.167969 13.023438 5.578125 13 5.039062 12.679688 C 4.347656 12.234375 3.09375 10.390625 3.09375 10.390625 "/></clipPath><clipPath id="f04d6a3c8d"><path d="M 6.121094 4.296875 L 18 4.296875 L 18 15.433594 L 6.121094 15.433594 Z M 6.121094 4.296875 "/></clipPath></defs><g id="9fd842863c"><g clip-rule="nonzero" clip-path="url(#8e69dbffc8)"><path style=" stroke:none;fill-rule:nonzero;fill:#711eeb;fill-opacity:1;" d="M 11.824219 0 C 18.136719 0 23.273438 4.621094 23.273438 10.304688 C 23.273438 16.324219 17.503906 21.1875 10.679688 20.554688 L 10.679688 24.148438 L 8.917969 23.015625 C 7.621094 22.1875 1.125 17.71875 0.441406 11.398438 C 0.402344 11.039062 0.378906 10.671875 0.378906 10.304688 C 0.378906 4.621094 5.511719 0 11.824219 0 Z M 15.261719 11.449219 L 17.550781 11.449219 L 17.550781 9.160156 L 15.261719 9.160156 Z M 10.679688 11.449219 L 12.972656 11.449219 L 12.972656 9.160156 L 10.679688 9.160156 Z M 6.101562 11.449219 L 8.390625 11.449219 L 8.390625 9.160156 L 6.101562 9.160156 Z M 6.101562 11.449219 "/></g><g clip-rule="nonzero" clip-path="url(#cbea538721)"><g clip-rule="nonzero" clip-path="url(#aca70f54d7)"><path style=" stroke:none;fill-rule:nonzero;fill:#e7191f;fill-opacity:1;" d="M 9.914062 7.039062 L 16.117188 7.039062 L 16.117188 13.828125 L 9.914062 13.828125 Z M 9.914062 7.039062 "/></g></g><g clip-rule="nonzero" clip-path="url(#9f921e80c2)"><g clip-rule="nonzero" clip-path="url(#f9818909f1)"><path style=" stroke:none;fill-rule:nonzero;fill:#711eeb;fill-opacity:1;" d="M 6.34375 7.140625 L 18.886719 7.140625 L 18.886719 15.4375 L 6.34375 15.4375 Z M 6.34375 7.140625 "/></g></g><g clip-rule="nonzero" clip-path="url(#fd523b6ab2)"><g clip-rule="nonzero" clip-path="url(#7b94d76b73)"><path style=" stroke:none;fill-rule:nonzero;fill:#711eeb;fill-opacity:1;" d="M 8.3125 6.941406 L 18.839844 6.941406 L 18.839844 14.84375 L 8.3125 14.84375 Z M 8.3125 6.941406 "/></g></g><g clip-rule="nonzero" clip-path="url(#6b462e05b0)"><g clip-rule="nonzero" clip-path="url(#93ccdd0139)"><path style=" stroke:none;fill-rule:nonzero;fill:#711eeb;fill-opacity:1;" d="M 2.105469 6.5 L 18.421875 6.5 L 18.421875 14.105469 L 2.105469 14.105469 Z M 2.105469 6.5 "/></g></g><g clip-rule="nonzero" clip-path="url(#f04d6a3c8d)"><path style=" stroke:none;fill-rule:nonzero;fill:#ffffff;fill-opacity:1;" d="M 16.648438 7.792969 C 15.761719 7.554688 14.277344 7.53125 14.277344 7.53125 C 14.054688 7.492188 13.925781 7.554688 13.753906 7.152344 C 13.582031 6.75 13.277344 5.890625 12.5625 4.933594 C 12.207031 4.519531 11.609375 4.296875 11.070312 4.933594 C 10.628906 5.460938 9.882812 7.152344 9.882812 7.152344 C 9.773438 7.351562 9.859375 7.453125 9.359375 7.53125 C 8.859375 7.609375 7.800781 7.703125 6.878906 7.980469 C 6.1875 8.148438 6.128906 8.878906 6.417969 9.394531 C 6.710938 9.914062 8.164062 11.214844 8.164062 11.214844 C 8.320312 11.378906 8.394531 11.605469 8.363281 11.828125 C 8.363281 11.828125 7.898438 13.753906 8.023438 14.324219 C 8.144531 14.898438 8.519531 15.285156 9.226562 15.199219 C 9.933594 15.113281 11.496094 14.105469 11.496094 14.105469 C 11.699219 14.007812 11.9375 14.007812 12.140625 14.105469 C 12.140625 14.105469 13.628906 14.96875 14.410156 15.203125 C 15.191406 15.433594 15.585938 14.746094 15.617188 14.328125 C 15.585938 13.429688 15.273438 11.832031 15.273438 11.832031 C 15.246094 11.605469 15.191406 11.425781 15.472656 11.214844 C 15.757812 11.007812 16.664062 10.203125 17.21875 9.398438 C 17.65625 8.757812 17.53125 8.027344 16.648438 7.792969 Z M 16.648438 7.792969 "/></g></g></svg>