<svg xmlns="http://www.w3.org/2000/svg" xmlns:xlink="http://www.w3.org/1999/xlink" width="217" zoomAndPan="magnify" viewBox="0 0 162.75 50.249999" height="67" preserveAspectRatio="xMidYMid meet" version="1.2"><defs><clipPath id="6e9d91eb65"><path d="M 1.199219 10.910156 L 26.9375 10.910156 L 26.9375 38.25 L 1.199219 38.25 Z M 1.199219 10.910156 "/></clipPath><clipPath id="7fdfebffad"><path d="M 9.09375 19.953125 L 20.996094 19.953125 L 20.996094 27.105469 L 9.09375 27.105469 Z M 9.09375 19.953125 "/></clipPath><clipPath id="f2767c5aee"><path d="M 20.75 22.625 C 19.015625 24.386719 16.753906 24.554688 16.175781 24.085938 C 15.761719 23.78125 15.707031 22.984375 15.789062 22.402344 C 15.925781 21.714844 16.617188 20.582031 17.222656 20.253906 C 17.71875 20.003906 18.433594 20.085938 18.957031 20.335938 C 19.59375 20.640625 20.335938 21.4375 20.585938 22.183594 C 20.832031 22.984375 20.667969 24.304688 20.363281 25.050781 C 20.117188 25.65625 19.648438 26.125 19.152344 26.457031 C 18.601562 26.816406 17.910156 27.035156 17.222656 27.089844 C 16.476562 27.144531 15.679688 27.007812 14.824219 26.675781 C 13.609375 26.234375 11.84375 25.105469 10.851562 24.332031 C 10.164062 23.835938 9.53125 23.394531 9.28125 22.84375 C 9.0625 22.347656 9.035156 21.660156 9.253906 21.246094 C 9.445312 20.804688 10.109375 20.390625 10.550781 20.308594 C 10.910156 20.226562 11.320312 20.335938 11.625 20.5 C 11.929688 20.695312 12.230469 20.96875 12.34375 21.328125 C 12.480469 21.742188 12.480469 22.542969 12.203125 22.925781 C 11.957031 23.3125 11.265625 23.671875 10.824219 23.699219 C 10.441406 23.753906 10.054688 23.589844 9.777344 23.394531 C 9.503906 23.175781 9.226562 22.84375 9.144531 22.484375 C 9.035156 22.074219 9.144531 21.300781 9.445312 20.914062 C 9.75 20.554688 10.300781 20.253906 10.910156 20.28125 C 12.066406 20.390625 14.105469 22.84375 15.621094 23.257812 C 16.863281 23.589844 19.207031 23.394531 19.261719 23.121094 C 19.316406 22.925781 17.140625 22.515625 17.027344 22.015625 C 16.917969 21.578125 17.746094 20.695312 18.242188 20.363281 C 18.683594 20.085938 19.316406 19.894531 19.785156 20.003906 C 20.226562 20.113281 20.777344 20.640625 20.945312 21.050781 C 21.109375 21.492188 20.75 22.625 20.75 22.625 "/></clipPath><clipPath id="c991ffdb1c"><path d="M 4.398438 19.25 L 20.535156 19.25 L 20.535156 25.640625 L 4.398438 25.640625 Z M 4.398438 19.25 "/></clipPath><clipPath id="2e5c66b9c6"><path d="M 4.402344 22.542969 C 6.523438 20.03125 7.601562 19.785156 7.957031 19.949219 C 8.152344 20.03125 8.207031 20.445312 8.261719 20.472656 C 8.261719 20.472656 8.261719 20.472656 8.289062 20.472656 C 8.316406 20.472656 8.316406 20.472656 8.34375 20.472656 C 8.453125 20.472656 8.921875 20.308594 9.335938 20.308594 C 9.972656 20.335938 11.433594 20.5 11.84375 20.859375 C 12.121094 21.082031 12.039062 21.632812 12.203125 21.714844 C 12.285156 21.769531 12.453125 21.714844 12.535156 21.660156 C 12.589844 21.632812 12.644531 21.550781 12.671875 21.492188 C 12.671875 21.382812 12.589844 21.300781 12.589844 21.191406 C 12.5625 21.082031 12.5625 20.914062 12.5625 20.777344 C 12.589844 20.667969 12.617188 20.527344 12.671875 20.390625 C 12.699219 20.28125 12.78125 20.144531 12.839844 20.03125 C 12.921875 19.921875 13.003906 19.8125 13.113281 19.730469 C 13.195312 19.648438 13.308594 19.5625 13.445312 19.480469 C 13.554688 19.425781 13.691406 19.371094 13.804688 19.34375 C 13.941406 19.316406 14.023438 19.289062 14.214844 19.289062 C 14.714844 19.261719 16.117188 19.261719 16.890625 19.289062 C 17.523438 19.34375 18.078125 19.289062 18.601562 19.480469 C 19.179688 19.730469 19.894531 20.171875 20.199219 20.695312 C 20.476562 21.164062 20.585938 21.851562 20.449219 22.347656 C 20.335938 22.871094 19.867188 23.421875 19.425781 23.78125 C 18.988281 24.140625 18.40625 24.359375 17.773438 24.5 C 17.054688 24.664062 16.007812 24.554688 15.347656 24.636719 C 14.90625 24.71875 14.683594 24.828125 14.273438 24.941406 C 13.691406 25.050781 12.753906 25.160156 12.121094 25.214844 C 11.597656 25.269531 11.046875 25.160156 10.742188 25.269531 C 10.550781 25.324219 10.523438 25.492188 10.328125 25.546875 C 9.941406 25.65625 9.089844 25.65625 8.480469 25.574219 C 7.847656 25.492188 7.1875 25.464844 6.578125 25.105469 C 5.808594 24.609375 4.402344 22.542969 4.402344 22.542969 "/></clipPath><clipPath id="5c521a3a80"><path d="M 7.792969 15.71875 L 21 15.71875 L 21 28.28125 L 7.792969 28.28125 Z M 7.792969 15.71875 "/></clipPath></defs><g id="40daef87dd"><g clip-rule="nonzero" clip-path="url(#6e9d91eb65)"><path style=" stroke:none;fill-rule:nonzero;fill:#711eeb;fill-opacity:1;" d="M 14.132812 10.910156 C 21.226562 10.910156 27 16.105469 27 22.488281 C 27 29.257812 20.515625 34.722656 12.847656 34.011719 L 12.847656 38.050781 L 10.863281 36.777344 C 9.40625 35.84375 2.105469 30.824219 1.339844 23.71875 C 1.289062 23.3125 1.265625 22.902344 1.265625 22.488281 C 1.265625 16.105469 7.039062 10.910156 14.132812 10.910156 Z M 17.992188 23.777344 L 20.566406 23.777344 L 20.566406 21.203125 L 17.992188 21.203125 Z M 12.847656 23.777344 L 15.417969 23.777344 L 15.417969 21.203125 L 12.847656 21.203125 Z M 7.699219 23.777344 L 10.273438 23.777344 L 10.273438 21.203125 L 7.699219 21.203125 Z M 7.699219 23.777344 "/></g><g clip-rule="nonzero" clip-path="url(#7fdfebffad)"><g clip-rule="nonzero" clip-path="url(#f2767c5aee)"><path style=" stroke:none;fill-rule:nonzero;fill:#711eeb;fill-opacity:1;" d="M 8.039062 18.902344 L 22.085938 18.902344 L 22.085938 28.191406 L 8.039062 28.191406 Z M 8.039062 18.902344 "/></g></g><g clip-rule="nonzero" clip-path="url(#c991ffdb1c)"><g clip-rule="nonzero" clip-path="url(#2e5c66b9c6)"><path style=" stroke:none;fill-rule:nonzero;fill:#711eeb;fill-opacity:1;" d="M 3.296875 18.183594 L 21.570312 18.183594 L 21.570312 26.703125 L 3.296875 26.703125 Z M 3.296875 18.183594 "/></g></g><g clip-rule="nonzero" clip-path="url(#5c521a3a80)"><path style=" stroke:none;fill-rule:nonzero;fill:#ffffff;fill-opacity:1;" d="M 19.664062 19.660156 C 18.667969 19.394531 16.988281 19.367188 16.988281 19.367188 C 16.738281 19.324219 16.59375 19.394531 16.398438 18.941406 C 16.207031 18.488281 15.863281 17.519531 15.054688 16.4375 C 14.652344 15.972656 13.980469 15.71875 13.375 16.4375 C 12.875 17.03125 12.035156 18.941406 12.035156 18.941406 C 11.910156 19.167969 12.003906 19.28125 11.441406 19.367188 C 10.878906 19.457031 9.683594 19.5625 8.644531 19.871094 C 7.867188 20.066406 7.800781 20.890625 8.125 21.472656 C 8.457031 22.054688 10.09375 23.523438 10.09375 23.523438 C 10.269531 23.707031 10.351562 23.964844 10.320312 24.214844 C 10.320312 24.214844 9.796875 26.386719 9.933594 27.03125 C 10.074219 27.675781 10.496094 28.117188 11.292969 28.019531 C 12.09375 27.921875 13.851562 26.785156 13.851562 26.785156 C 14.082031 26.671875 14.351562 26.671875 14.582031 26.785156 C 14.582031 26.785156 16.257812 27.757812 17.140625 28.019531 C 18.023438 28.28125 18.46875 27.507812 18.5 27.035156 C 18.464844 26.023438 18.117188 24.21875 18.117188 24.21875 C 18.082031 23.964844 18.019531 23.757812 18.339844 23.523438 C 18.660156 23.289062 19.679688 22.382812 20.304688 21.472656 C 20.800781 20.753906 20.660156 19.925781 19.664062 19.660156 Z M 19.664062 19.660156 "/></g><g style="fill:#000000;fill-opacity:1;"><g transform="translate(34.477652, 34.228531)"><path style="stroke:none" d="M 8.609375 0.28125 C 7.109375 0.28125 5.660156 0.0664062 4.265625 -0.359375 C 2.878906 -0.785156 1.78125 -1.347656 0.96875 -2.046875 L 2.21875 -4.84375 C 3.007812 -4.21875 3.976562 -3.707031 5.125 -3.3125 C 6.28125 -2.914062 7.441406 -2.71875 8.609375 -2.71875 C 10.046875 -2.71875 11.117188 -2.945312 11.828125 -3.40625 C 12.535156 -3.863281 12.890625 -4.472656 12.890625 -5.234375 C 12.890625 -5.785156 12.691406 -6.238281 12.296875 -6.59375 C 11.898438 -6.957031 11.394531 -7.238281 10.78125 -7.4375 C 10.175781 -7.644531 9.347656 -7.878906 8.296875 -8.140625 C 6.828125 -8.484375 5.632812 -8.832031 4.71875 -9.1875 C 3.800781 -9.539062 3.015625 -10.085938 2.359375 -10.828125 C 1.710938 -11.578125 1.390625 -12.585938 1.390625 -13.859375 C 1.390625 -14.929688 1.675781 -15.90625 2.25 -16.78125 C 2.832031 -17.65625 3.707031 -18.347656 4.875 -18.859375 C 6.050781 -19.378906 7.488281 -19.640625 9.1875 -19.640625 C 10.363281 -19.640625 11.523438 -19.492188 12.671875 -19.203125 C 13.816406 -18.910156 14.804688 -18.488281 15.640625 -17.9375 L 14.5 -15.140625 C 13.65625 -15.640625 12.769531 -16.015625 11.84375 -16.265625 C 10.914062 -16.523438 10.019531 -16.65625 9.15625 -16.65625 C 7.738281 -16.65625 6.679688 -16.414062 5.984375 -15.9375 C 5.296875 -15.457031 4.953125 -14.820312 4.953125 -14.03125 C 4.953125 -13.476562 5.148438 -13.023438 5.546875 -12.671875 C 5.941406 -12.316406 6.441406 -12.039062 7.046875 -11.84375 C 7.660156 -11.644531 8.492188 -11.414062 9.546875 -11.15625 C 10.984375 -10.820312 12.160156 -10.472656 13.078125 -10.109375 C 14.003906 -9.753906 14.796875 -9.207031 15.453125 -8.46875 C 16.109375 -7.726562 16.4375 -6.734375 16.4375 -5.484375 C 16.4375 -4.410156 16.144531 -3.4375 15.5625 -2.5625 C 14.976562 -1.695312 14.097656 -1.003906 12.921875 -0.484375 C 11.742188 0.0234375 10.304688 0.28125 8.609375 0.28125 Z M 8.609375 0.28125 "/></g></g><g style="fill:#000000;fill-opacity:1;"><g transform="translate(51.080026, 34.228531)"><path style="stroke:none" d="M 11.15625 -0.796875 C 10.75 -0.460938 10.253906 -0.210938 9.671875 -0.046875 C 9.085938 0.109375 8.472656 0.1875 7.828125 0.1875 C 6.203125 0.1875 4.945312 -0.234375 4.0625 -1.078125 C 3.175781 -1.929688 2.734375 -3.164062 2.734375 -4.78125 L 2.734375 -11.90625 L 0.296875 -11.90625 L 0.296875 -14.671875 L 2.734375 -14.671875 L 2.734375 -18.046875 L 6.203125 -18.046875 L 6.203125 -14.671875 L 10.15625 -14.671875 L 10.15625 -11.90625 L 6.203125 -11.90625 L 6.203125 -4.875 C 6.203125 -4.15625 6.375 -3.601562 6.71875 -3.21875 C 7.070312 -2.84375 7.582031 -2.65625 8.25 -2.65625 C 9.019531 -2.65625 9.664062 -2.859375 10.1875 -3.265625 Z M 11.15625 -0.796875 "/></g></g><g style="fill:#000000;fill-opacity:1;"><g transform="translate(62.009913, 34.228531)"><path style="stroke:none" d="M 7.921875 -14.9375 C 10.085938 -14.9375 11.75 -14.414062 12.90625 -13.375 C 14.0625 -12.332031 14.640625 -10.757812 14.640625 -8.65625 L 14.640625 0 L 11.375 0 L 11.375 -1.796875 C 10.945312 -1.148438 10.34375 -0.65625 9.5625 -0.3125 C 8.78125 0.0195312 7.832031 0.1875 6.71875 0.1875 C 5.613281 0.1875 4.644531 0 3.8125 -0.375 C 2.988281 -0.75 2.347656 -1.269531 1.890625 -1.9375 C 1.441406 -2.613281 1.21875 -3.378906 1.21875 -4.234375 C 1.21875 -5.554688 1.707031 -6.617188 2.6875 -7.421875 C 3.675781 -8.234375 5.234375 -8.640625 7.359375 -8.640625 L 11.171875 -8.640625 L 11.171875 -8.859375 C 11.171875 -9.890625 10.863281 -10.679688 10.25 -11.234375 C 9.632812 -11.785156 8.71875 -12.0625 7.5 -12.0625 C 6.664062 -12.0625 5.847656 -11.929688 5.046875 -11.671875 C 4.242188 -11.421875 3.566406 -11.0625 3.015625 -10.59375 L 1.65625 -13.109375 C 2.4375 -13.703125 3.367188 -14.15625 4.453125 -14.46875 C 5.546875 -14.78125 6.703125 -14.9375 7.921875 -14.9375 Z M 7.4375 -2.328125 C 8.3125 -2.328125 9.082031 -2.523438 9.75 -2.921875 C 10.425781 -3.316406 10.898438 -3.882812 11.171875 -4.625 L 11.171875 -6.34375 L 7.609375 -6.34375 C 5.617188 -6.34375 4.625 -5.6875 4.625 -4.375 C 4.625 -3.75 4.867188 -3.25 5.359375 -2.875 C 5.859375 -2.507812 6.550781 -2.328125 7.4375 -2.328125 Z M 7.4375 -2.328125 "/></g></g><g style="fill:#000000;fill-opacity:1;"><g transform="translate(78.003531, 34.228531)"><path style="stroke:none" d="M 5.5625 -12.625 C 6.5625 -14.164062 8.3125 -14.9375 10.8125 -14.9375 L 10.8125 -11.65625 C 10.519531 -11.707031 10.253906 -11.734375 10.015625 -11.734375 C 8.671875 -11.734375 7.617188 -11.335938 6.859375 -10.546875 C 6.109375 -9.765625 5.734375 -8.640625 5.734375 -7.171875 L 5.734375 0 L 2.265625 0 L 2.265625 -14.78125 L 5.5625 -14.78125 Z M 5.5625 -12.625 "/></g></g><g style="fill:#000000;fill-opacity:1;"><g transform="translate(88.213976, 34.228531)"><path style="stroke:none" d="M 11.5625 0.28125 C 9.613281 0.28125 7.847656 -0.144531 6.265625 -1 C 4.691406 -1.863281 3.457031 -3.050781 2.5625 -4.5625 C 1.664062 -6.070312 1.21875 -7.78125 1.21875 -9.6875 C 1.21875 -11.582031 1.664062 -13.285156 2.5625 -14.796875 C 3.46875 -16.316406 4.707031 -17.503906 6.28125 -18.359375 C 7.863281 -19.210938 9.632812 -19.640625 11.59375 -19.640625 C 13.175781 -19.640625 14.625 -19.363281 15.9375 -18.8125 C 17.25 -18.257812 18.359375 -17.457031 19.265625 -16.40625 L 16.9375 -14.21875 C 15.53125 -15.738281 13.804688 -16.5 11.765625 -16.5 C 10.429688 -16.5 9.238281 -16.207031 8.1875 -15.625 C 7.132812 -15.039062 6.3125 -14.234375 5.71875 -13.203125 C 5.132812 -12.171875 4.84375 -11 4.84375 -9.6875 C 4.84375 -8.375 5.132812 -7.203125 5.71875 -6.171875 C 6.3125 -5.140625 7.132812 -4.332031 8.1875 -3.75 C 9.238281 -3.164062 10.429688 -2.875 11.765625 -2.875 C 13.804688 -2.875 15.53125 -3.640625 16.9375 -5.171875 L 19.265625 -2.953125 C 18.359375 -1.910156 17.242188 -1.109375 15.921875 -0.546875 C 14.609375 0.00390625 13.15625 0.28125 11.5625 0.28125 Z M 11.5625 0.28125 "/></g></g><g style="fill:#000000;fill-opacity:1;"><g transform="translate(107.528071, 34.228531)"><path style="stroke:none" d="M 10.65625 -14.9375 C 12.519531 -14.9375 14.015625 -14.390625 15.140625 -13.296875 C 16.265625 -12.210938 16.828125 -10.601562 16.828125 -8.46875 L 16.828125 0 L 13.359375 0 L 13.359375 -8.03125 C 13.359375 -9.320312 13.054688 -10.289062 12.453125 -10.9375 C 11.847656 -11.59375 10.976562 -11.921875 9.84375 -11.921875 C 8.570312 -11.921875 7.566406 -11.535156 6.828125 -10.765625 C 6.097656 -10.003906 5.734375 -8.90625 5.734375 -7.46875 L 5.734375 0 L 2.265625 0 L 2.265625 -20.53125 L 5.734375 -20.53125 L 5.734375 -13.0625 C 6.296875 -13.664062 7 -14.128906 7.84375 -14.453125 C 8.6875 -14.773438 9.625 -14.9375 10.65625 -14.9375 Z M 10.65625 -14.9375 "/></g></g><g style="fill:#000000;fill-opacity:1;"><g transform="translate(125.680008, 34.228531)"><path style="stroke:none" d="M 7.921875 -14.9375 C 10.085938 -14.9375 11.75 -14.414062 12.90625 -13.375 C 14.0625 -12.332031 14.640625 -10.757812 14.640625 -8.65625 L 14.640625 0 L 11.375 0 L 11.375 -1.796875 C 10.945312 -1.148438 10.34375 -0.65625 9.5625 -0.3125 C 8.78125 0.0195312 7.832031 0.1875 6.71875 0.1875 C 5.613281 0.1875 4.644531 0 3.8125 -0.375 C 2.988281 -0.75 2.347656 -1.269531 1.890625 -1.9375 C 1.441406 -2.613281 1.21875 -3.378906 1.21875 -4.234375 C 1.21875 -5.554688 1.707031 -6.617188 2.6875 -7.421875 C 3.675781 -8.234375 5.234375 -8.640625 7.359375 -8.640625 L 11.171875 -8.640625 L 11.171875 -8.859375 C 11.171875 -9.890625 10.863281 -10.679688 10.25 -11.234375 C 9.632812 -11.785156 8.71875 -12.0625 7.5 -12.0625 C 6.664062 -12.0625 5.847656 -11.929688 5.046875 -11.671875 C 4.242188 -11.421875 3.566406 -11.0625 3.015625 -10.59375 L 1.65625 -13.109375 C 2.4375 -13.703125 3.367188 -14.15625 4.453125 -14.46875 C 5.546875 -14.78125 6.703125 -14.9375 7.921875 -14.9375 Z M 7.4375 -2.328125 C 8.3125 -2.328125 9.082031 -2.523438 9.75 -2.921875 C 10.425781 -3.316406 10.898438 -3.882812 11.171875 -4.625 L 11.171875 -6.34375 L 7.609375 -6.34375 C 5.617188 -6.34375 4.625 -5.6875 4.625 -4.375 C 4.625 -3.75 4.867188 -3.25 5.359375 -2.875 C 5.859375 -2.507812 6.550781 -2.328125 7.4375 -2.328125 Z M 7.4375 -2.328125 "/></g></g><g style="fill:#000000;fill-opacity:1;"><g transform="translate(141.673621, 34.228531)"><path style="stroke:none" d="M 11.15625 -0.796875 C 10.75 -0.460938 10.253906 -0.210938 9.671875 -0.046875 C 9.085938 0.109375 8.472656 0.1875 7.828125 0.1875 C 6.203125 0.1875 4.945312 -0.234375 4.0625 -1.078125 C 3.175781 -1.929688 2.734375 -3.164062 2.734375 -4.78125 L 2.734375 -11.90625 L 0.296875 -11.90625 L 0.296875 -14.671875 L 2.734375 -14.671875 L 2.734375 -18.046875 L 6.203125 -18.046875 L 6.203125 -14.671875 L 10.15625 -14.671875 L 10.15625 -11.90625 L 6.203125 -11.90625 L 6.203125 -4.875 C 6.203125 -4.15625 6.375 -3.601562 6.71875 -3.21875 C 7.070312 -2.84375 7.582031 -2.65625 8.25 -2.65625 C 9.019531 -2.65625 9.664062 -2.859375 10.1875 -3.265625 Z M 11.15625 -0.796875 "/></g></g></g></svg>